<!-- icon666.com - MILLIONS OF FREE VECTOR ICONS --><svg id="Layer_1" enable-background="new 0 0 52 52" viewBox="0 0 52 52" xmlns="http://www.w3.org/2000/svg"><g><g><g><path d="m49.98822 12.05984v27.88c0 .82001-.67999 1.5-1.5 1.5h-45c-.83002 0-1.5-.67999-1.5-1.5v-27.88c0-.83002.66998-1.5 1.5-1.5h45c.82001 0 1.5.66999 1.5 1.5z" fill="#e6f1fa"></path></g><g><g><g><path d="m14.55451 15.36803v8.02823c0 .46299-.37041.8334-.82414.8334h-6.86148c-.2593 0-.4908-.12038-.63893-.30559-.12038-.13886-.19447-.32407-.19447-.52781v-8.02823c0-.45372.37963-.8334.8334-.8334h6.86149c.45372-.00001.82413.37968.82413.8334z" fill="#3f5176"></path></g><g><path d="m12.61048 17.81093c0 1.27812-1.03409 2.30643-2.3064 2.30643-1.27812 0-2.30644-1.02831-2.30644-2.30643 0-1.27231 1.02831-2.30059 2.30644-2.30059 1.27231.00001 2.3064 1.02829 2.3064 2.30059z" fill="#fff"></path></g><g opacity=".07"><path d="m12.60992 17.81263c0 1.27786-1.03709 2.30568-2.30568 2.30568-.78706 0-1.48154-.3889-1.87971-.9908.37036.26851.83335.42597 1.32414.42597 1.26859 0 2.30568-1.02788 2.30568-2.30574 0-.49074-.1574-.94446-.42597-1.31488.59265.40744.98154 1.10192.98154 1.87977z" fill="#010101"></path></g><g><path d="m14.55451 22.14621v1.25005c0 .46299-.37041.8334-.82414.8334h-6.86148c-.2593 0-.4908-.12038-.63893-.30559-.12038-.13886-.19447-.32407-.19447-.52781v-1.25005c1.2223-.78712 2.69458-1.25932 4.26875-1.25932 1.44453 0 2.79648.39816 3.95395 1.07411.10185.05556.20369.12038.29632.18521z" fill="#fff"></path></g><g opacity=".07"><path d="m14.55451 22.14621v1.25005c0 .46299-.37041.8334-.82414.8334h-6.86148c-.2593 0-.4908-.12038-.63893-.30559-.05556-.06483-.1019-.12965-.12965-.21296.09258.04629.20369.06483.3148.06483h5.60222c1.09265 0 1.99082-.84267 2.07419-1.90752.05556.02775.11111.06483.16667.09258.10185.05556.20369.12038.29632.18521z" fill="#010101"></path></g></g><g><path d="m45.93854 21.55522v2.32938c0 .19282-.16234.34506-.35515.34506h-25.72044c-.19281 0-.34506-.15224-.34506-.34506v-2.32938c0-.19281.15224-.35516.34506-.35516h25.72044c.19281 0 .35515.16234.35515.35516z" fill="#f5c560"></path></g><g><path d="m45.93854 14.88978v2.32939c0 .19281-.16234.34506-.35515.34506h-12.71845c-.19281 0-.34506-.15224-.34506-.34506v-2.32939c0-.19281.15224-.35515.34506-.35515h12.71845c.19281-.00001.35515.16233.35515.35515z" fill="#45c8f5"></path></g><g><g><path d="m45.93854 34.27612v2.32938c0 .19281-.16234.35516-.35515.35516h-39.1923c-.19281 0-.35522-.16234-.35522-.35516v-2.32938c0-.19281.1624-.34506.35522-.34506h39.1923c.19281 0 .35515.15225.35515.34506z" fill="#d2e2f2"></path></g></g><g><g><path d="m45.93854 27.64398v2.32939c0 .19281-.16234.35515-.35515.35515h-39.1923c-.19281 0-.35522-.16234-.35522-.35515v-2.32939c0-.19281.1624-.34506.35522-.34506h39.1923c.19281 0 .35515.15224.35515.34506z" fill="#d2e2f2"></path></g></g><g opacity=".07"><path d="m45.94324 21.55503v2.33002c0 .19-.17004.33997-.36005.33997h-25.71997c-.19 0-.35004-.14996-.35004-.33997v-.85999h22.67004c1.16998 0 2.16998-.76001 2.52997-1.82001h.87c.19001.00001.36005.15998.36005.34998z" fill="#010101"></path></g><g opacity=".07"><path d="m45.94324 14.88505v2.33002c0 .19995-.17004.34998-.36005.34998h-12.71997c-.19 0-.34003-.15002-.34003-.34998v-.86005h9.67004c1.17999 0 2.16998-.75995 2.51996-1.82001h.87c.19001 0 .36005.16004.36005.35004z" fill="#010101"></path></g><g opacity=".05"><g><path d="m45.94324 34.27506v2.32996c0 .19-.17004.36005-.36005.36005h-39.19c-.19 0-.35999-.17004-.35999-.36005v-.84998h36.15002c1.16998 0 2.16998-.76001 2.51996-1.82001h.88c.19002.00001.36006.15003.36006.34003z" fill="#010101"></path></g></g><g opacity=".05"><g><path d="m45.94324 27.64506v2.32996c0 .19-.17004.35004-.36005.35004h-39.19c-.19 0-.35999-.16003-.35999-.35004v-.84998h36.15002c1.16998 0 2.16998-.77002 2.52997-1.83002h.87c.19001 0 .36005.16004.36005.35004z" fill="#010101"></path></g></g></g></g><g><g><path d="m31.408 10.56h8.439v23.144h-8.439z" fill="#70c493"></path></g><g opacity=".07"><path d="m39.84275 10.55984v23.14415h-8.43582v-2.73372c3.49876-1.03026 6.04888-4.26379 6.04888-8.09919v-12.31124z" fill="#010101"></path></g><g><circle cx="35.627" cy="28.807" fill="#fff" r="7.638"></circle></g><g opacity=".07"><path d="m43.26338 28.80691c0 4.21646-3.41587 7.64295-7.63233 7.64295-2.58322 0-4.85691-1.2809-6.2339-3.23436 1.2489.89663 2.77536 1.40905 4.40859 1.40905 4.21646 0 7.63227-3.42656 7.63227-7.64302 0-1.64386-.52304-3.17031-1.41967-4.41921 1.96408 1.37699 3.24504 3.66136 3.24504 6.24459z" fill="#010101"></path></g><path d="m48.5 9.56008c-15.09978 0-35.88152 0-45 0-1.37842 0-2.5 1.12158-2.5 2.5v27.87988c0 1.37842 1.12158 2.5 2.5 2.5h45c1.37842 0 2.5-1.12158 2.5-2.5v-27.87988c0-1.37842-1.12158-2.5-2.5-2.5zm-9.65332 2v9.23822c-.99622-.40204-2.0813-.62885-3.21973-.62885-1.13824 0-2.22314.22675-3.21924.62866v-9.23804h6.43897zm-3.21973 10.60937c3.66016 0 6.6377 2.97754 6.6377 6.6377 0 3.65967-2.97754 6.63721-6.6377 6.63721s-6.6377-2.97754-6.6377-6.63721c.00001-3.66016 2.97755-6.6377 6.6377-6.6377zm13.37305 17.77051c0 .2666-.2334.5-.5.5h-45c-.271 0-.5-.229-.5-.5v-27.87988c0-.27588.22412-.5.5-.5h26.90771v10.38086c-2.07251 1.57928-3.41846 4.06549-3.41846 6.86621 0 4.7627 3.875 8.63721 8.6377 8.63721s8.6377-3.87451 8.6377-8.63721c0-2.80048-1.34576-5.2865-3.41797-6.86584v-10.38123h7.65332c.271 0 .5.229.5.5z" fill="#2a3d66"></path><g><path d="m38.03745 29.84488c-.06995.06995-.09537.16536-.08268.26074l.41977 2.44221c.04453.23531-.20988.41337-.41977.30526l-2.19412-1.1575c-.08268-.04452-.18446-.04452-.26714 0l-2.19413 1.1575c-.20988.10811-.46429-.06995-.41977-.30526l.41977-2.44221c.0127-.09538-.01273-.19079-.08268-.26074l-1.7808-1.72354c-.17169-.17173-.07631-.46426.16536-.49605l2.44857-.36252c.09538-.01273.17805-.06999.22258-.159l1.09392-2.21326c.1081-.21621.41337-.21621.52147 0l1.09392 2.21326c.04453.08901.12721.14627.22258.159l2.44857.36252c.24168.03179.33706.32432.16536.49605z" fill="#f05b76"></path></g></g></g></svg>