<!-- icon666.com - MILLIONS OF FREE VECTOR ICONS --><svg id="Capa_1" enable-background="new 0 0 512 512" viewBox="0 0 512 512" xmlns="http://www.w3.org/2000/svg"><g><path d="m470.277 254.319c0 2.51 41.683 6.691 41.613 9.181-1.72 59.89-24.02 114.62-60.06 157.39-1.613 1.916-25.586-6.311-27.256-4.443-1.747 1.955 18.806 14.001 16.996 15.903-38.35 40.35-89.74 68.2-147.4 76.82-12.45 1.87-25.2-3.145-38.17-3.145s-25.72 5.015-38.17 3.145c-57.66-8.62-109.05-36.47-147.4-76.82-1.955-2.055 16.046-10.94 14.164-13.056-1.526-1.715-22.946 3.351-24.424 1.596-36.04-42.77-58.34-97.5-60.06-157.39-.07-2.49 26.933-4.99 26.933-7.5s-27.003-5.01-26.933-7.5c1.72-59.88 24.01-114.61 60.05-157.37 1.708-2.029 12.244.918 14.015-1.06 1.651-1.844-5.468-8.615-3.765-10.41 38.37-40.35 89.75-68.21 147.42-76.83 12.45-1.87 25.2 4.34 38.17 4.34s25.72-6.21 38.17-4.34c57.66 8.62 109.05 36.47 147.4 76.82 1.77 1.86-13.599 11.653-11.889 13.563s20.499-4.063 22.149-2.103c36.04 42.77 58.34 97.5 60.06 157.39.07 2.49-41.613 3.309-41.613 5.819z" fill="#8ac9fe"></path><path d="m88.2 423.54c-3.39-3.9-6.66-7.91-9.8-12.02-31.61-41.25-50.94-92.41-52.54-148.02-.07-2.49-.11-4.99-.11-7.5s.04-5.01.11-7.5c1.6-55.61 20.93-106.77 52.54-148.02 3.14-4.11 6.41-8.12 9.79-12.02 30.54-35.25 70.55-62.08 116.07-76.51 4.034-1.28 8.837-2.281 13.953-3.108v-6.068c-.128.019-.255.036-.383.056-57.67 8.62-109.05 36.48-147.42 76.83-1.06 1.11 4.395 5.704 3.765 6.404-.1.11.1 2.062 0 2.172-.82.92-13.265 2.004-14.015 2.894-36.04 42.76-58.33 97.49-60.05 157.37-.03 1.24 3.463.867 3.443 2.117s6.894 5.51 6.894 6.77-6.403 1.937-6.383 3.187-3.984 1.686-3.954 2.926c1.72 59.89 24.02 114.62 60.06 157.39 1.48 1.75 6.704-1.685 8.234.025.35.4 2.066 2.536 2.426 2.936.67.75 1.608 2.697 2.298 3.447.87.94-3.588 4.122-2.698 5.052 38.35 40.35 89.74 68.2 147.4 76.82.78.12 16.154-2.128 15.766.418-.089.586 32.104-4.162 32.104-4.162 1.07-.04-40.9 1.145-61.44-5.375-45.52-14.431-85.53-41.261-116.06-76.511z" fill="#60b7ff"></path><path d="m511.89 263.5c.07-2.49.11-4.99.11-7.5s-.04-5.01-.11-7.5h-120.45c-.64-45.36-7.08-88.8-18.62-126.92 29.04-7.3 55.47-17.32 77.64-29.7l1.37-.77c-3.3-3.92-6.72-7.74-10.26-11.46-21.01 11.51-45.96 20.83-73.4 27.65-4.4-12.61-9.39-24.55-14.95-35.67-16.49-32.98-36.75-56.38-59.05-68.8-12.45-1.87-25.2-2.83-38.17-2.83s-23.614 4.105-36.064 5.975c-4.617 2.572-11.253 2.469-15.68 5.97-16.954 13.406-32.4 33.534-45.476 59.685-5.56 11.12-10.55 23.06-14.96 35.68-27.43-6.82-52.4-16.14-73.41-27.65-3.53 3.72 7.065 6.49 3.765 10.41l-12.635 1.83c22.18 12.38 48.6 22.39 77.63 29.68-11.53 38.12-17.97 81.56-18.61 126.92h-120.45c-.07 2.49 9.571 2.799 9.571 5.309s-9.641 7.201-9.571 9.691h120.45c.64 45.35 7.07 88.77 18.6 126.88-29.09 7.34-55.52 17.39-77.62 29.74l-1.37.77c1.822 2.165 19.615-4.76 21.511-2.656 1.537 1.706-12.836 12.45-11.251 14.116 20.92-11.47 45.88-20.83 73.39-27.68 4.4 12.62 9.4 24.58 14.96 35.7 16.49 32.98 36.75 56.38 59.05 68.8 12.45 1.87 25.2 2.83 38.17 2.83s25.72-.96 38.17-2.83c22.3-12.42 42.56-35.82 59.05-68.8 5.56-11.12 10.55-23.07 14.96-35.7 27.5 6.85 52.46 16.21 73.39 27.68 3.54-3.72 6.96-7.54 10.26-11.46l-1.37-.77c-22.11-12.35-48.53-22.4-77.63-29.73 11.54-38.11 17.97-81.54 18.61-126.89zm-248.39-255.5c28.44 3.7 55.3 28.33 76.3 70.33 5.05 10.1 9.61 20.92 13.67 32.35-28.26 5.92-58.74 9.28-89.97 9.75zm-91.3 70.33c21-42 47.86-66.63 76.3-70.33v112.43c-31.23-.47-61.7-3.83-89.97-9.75 4.06-11.42 8.62-22.25 13.67-32.35zm186 308.65c-20.26-4.35-41.63-7.41-63.59-9.05l-7.48-.56-1.11 14.96 7.48.56c20.73 1.55 40.87 4.39 59.98 8.41-4.06 11.43-8.63 22.26-13.68 32.37-21 42-47.86 66.63-76.3 70.33v-82.83h-15v82.83c-28.44-3.7-55.3-28.33-76.3-70.33-5.05-10.11-9.62-20.94-13.68-32.37 19.11-4.02 39.25-6.86 59.98-8.41l7.48-.56-1.11-14.96-7.48.56c-21.97 1.64-43.33 4.7-63.59 9.04-11.92-38.98-18.3-83.96-18.3-130.97 0-47.03 6.38-92.02 18.31-131.02 29.77 6.37 61.86 9.98 94.69 10.45v.06h15v-.06c32.83-.48 64.93-4.08 94.69-10.45 11.93 39 18.31 83.99 18.31 131.02 0 47.01-6.38 91.99-18.3 130.98z" fill="#d8ecfe"></path><g fill="#c4e2ff"><path d="m78.4 100.48c3.14-4.11 6.41-8.12 9.79-12.02-6.19-2.77-12.13-5.7-17.78-8.8-1.06 1.11-2.1 2.24-3.14 3.37-.63.69-1.26 1.39-1.89 2.09-.1.11-.19.21-.29.32-.82.92-1.63 1.84-2.43 2.77-.08.08-.15.17-.23.26-.76.88-1.52 1.77-2.27 2.66l1.38.77c5.38 3 11.01 5.87 16.86 8.58z"></path><path d="m61.54 420.12-1.37.77c1.48 1.75 2.98 3.49 4.51 5.2.35.4.71.8 1.07 1.2.67.75 1.36 1.5 2.05 2.25.87.94 1.74 1.88 2.63 2.81 5.64-3.09 11.57-6.03 17.77-8.81-3.39-3.9-6.66-7.91-9.8-12.02-5.86 2.73-11.49 5.6-16.86 8.6z"></path><path d="m.11 248.5c-.03 1.24-.06 2.49-.08 3.74s-.03 2.5-.03 3.76.01 2.51.03 3.76.05 2.5.08 3.74h25.75c-.07-2.49-.11-4.99-.11-7.5s.04-5.01.11-7.5z"></path></g><path d="m294.055 312.001v134.078c0 5.295-6.222 8.138-10.23 4.677l-23.777-20.583c-2.328-2.009-5.769-2.009-8.097 0l-8.633 7.469-15.144 13.114c-4.007 3.461-10.23.618-10.23-4.677v-134.078c0-3.42 2.771-6.181 6.181-6.181h63.748c3.411 0 6.182 2.76 6.182 6.181z" fill="#ffe177"></path><path d="m243.545 305.82c-.154.546-.227 1.113-.227 1.7v130.122l-15.144 13.114c-4.007 3.461-10.23.618-10.23-4.677v-134.078c0-3.42 2.771-6.181 6.181-6.181z" fill="#ffd15b"></path><path d="m384.01 256c0 70.701-57.309 128.01-128.01 128.01h-.227c-2.864 0-5.707-.103-8.53-.299h-.01c-66.611-4.501-119.243-59.956-119.243-127.711s52.632-123.21 119.243-127.712h.01c2.823-.196 5.666-.299 8.53-.299h.227c70.701.001 128.01 57.31 128.01 128.011z" fill="#fff0ad"></path><path d="m247.233 383.712c-66.611-4.502-119.243-59.957-119.243-127.712s52.632-123.21 119.243-127.712c-55.97 15.505-97.053 66.808-97.053 127.712s41.083 112.207 97.053 127.712z" fill="#ffe177"></path><g><path d="m256 346.311c4.267 0 7.726-3.459 7.726-7.726v-97.222c0-4.268-3.459-7.726-7.726-7.726s-7.726 3.459-7.726 7.726v97.222c0 4.267 3.459 7.726 7.726 7.726z" fill="#97d729"></path><g fill="#bbec6c"><path d="m312.916 237.641c.936 0 1.806.534 2.228 1.37 8.623 17.047 8.471 38.031-2.266 55.5s-29.391 27.082-48.495 27.086c-.936 0-1.806-.534-2.228-1.37-8.623-17.047-8.471-38.031 2.266-55.5 10.737-17.468 29.391-27.081 48.495-27.086z"></path><path d="m257.704 262.996c-.798.49-1.818.49-2.616 0-16.273-10.007-27.131-27.965-27.131-48.469 0-20.505 10.859-38.462 27.131-48.469.798-.49 1.818-.49 2.616 0 16.273 10.007 27.131 27.965 27.131 48.469s-10.858 38.462-27.131 48.469z"></path><path d="m199.084 237.641c-.936 0-1.806.534-2.228 1.37-8.623 17.047-8.471 38.031 2.266 55.5s29.391 27.082 48.495 27.086c.936 0 1.806-.534 2.228-1.37 8.623-17.047 8.471-38.031-2.266-55.5-10.737-17.468-29.391-27.081-48.495-27.086z"></path></g><path d="m316.585 242.092c-10.59 4.42-19.934 12.105-26.414 22.633-10.096 16.431-10.837 35.974-3.709 52.426-6.974 2.926-14.495 4.44-22.077 4.45-.938 0-1.803-.536-2.225-1.37-8.633-17.049-8.478-38.034 2.256-55.506 10.745-17.472 29.391-27.083 48.501-27.083.937 0 1.803.536 2.225 1.37.516 1.01.99 2.04 1.443 3.08z" fill="#a2e62e"></path><path d="m253.713 214.525c0 15.144 5.913 28.886 15.566 39.064-3.42 3.616-7.314 6.779-11.579 9.406-.793.494-1.813.494-2.606 0-16.277-10.003-27.135-27.959-27.135-48.47 0-20.501 10.858-38.457 27.135-48.47.793-.484 1.813-.484 2.606 0 4.265 2.627 8.159 5.8 11.579 9.416-9.653 10.188-15.566 23.931-15.566 39.054z" fill="#a2e62e"></path><path d="m251.292 317.151c-.453 1.04-.937 2.071-1.453 3.08-.422.834-1.288 1.37-2.225 1.37-19.1-.01-37.756-9.622-48.491-27.094-10.734-17.462-10.889-38.446-2.266-55.496.422-.835 1.288-1.37 2.225-1.37 7.582 0 15.102 1.514 22.087 4.45-7.129 16.452-6.387 35.994 3.709 52.416 6.47 10.53 15.824 18.215 26.414 22.644z" fill="#a2e62e"></path></g><path d="m217.83 509.17c.78.12 1.56.23 2.34.34.41.06.82.11 1.23.17 2.71.37 5.44.69 8.19.97.44.05.88.09 1.32.13.59.06 1.18.12 1.77.17.25.03.5.05.75.07 2.97.26 5.95.47 8.95.62 2.51.14 5.03.23 7.56.29.86.02 1.73.04 2.59.05 1.15.01 2.31.02 3.47.02 1.08 0 2.16-.01 3.23-.02 1.08-.01 2.16-.03 3.23-.06 1.07-.02 2.14-.06 3.21-.1h.01c1.07-.04 2.14-.09 3.2-.14-22.42-1.11-44.08-5.11-64.62-11.63 4.42 3.51 8.95 6.55 13.57 9.12z" fill="#c4e2ff"></path><path d="m265.68.18s0 0-.01 0c-1.07-.04-2.14-.08-3.21-.1-1.07-.03-2.15-.05-3.23-.06-1.07-.01-2.15-.02-3.23-.02-1.16 0-2.32.01-3.47.02-.86.01-1.73.03-2.59.05-2.53.06-5.05.15-7.56.29-3 .15-5.98.36-8.95.62-.25.02-.5.04-.75.07-.59.05-1.18.11-1.77.17-.44.04-.88.08-1.32.13-2.75.28-5.48.6-8.19.97-.41.06-.82.11-1.23.17-.78.11-1.56.22-2.34.34-4.62 2.57-9.15 5.61-13.57 9.12 20.54-6.52 42.2-10.52 64.62-11.63-1.06-.05-2.13-.1-3.2-.14z" fill="#c4e2ff"></path></g></svg>