<!-- icon666.com - MILLIONS OF FREE VECTOR ICONS --><svg id="Layer_1" enable-background="new 0 0 510 510" viewBox="0 0 510 510" xmlns="http://www.w3.org/2000/svg"><g><path d="m510 120h-30v-60h-47.572l-7.428-15 7.427-15h77.573z" fill="#ebebf0"></path><path d="m347.572 60h-50.144l-4.928-15 4.927-15h50.148l7.092 15z" fill="#ebebf0"></path><path d="m216.167 43.333-3.594 16.667h-50.145l-8.428-13 8.426-17h50.148z" fill="#fff5f5"></path><path d="m30 120h-30v-90h77.573l6.213 15-6.214 15h-47.572z" fill="#fff5f5"></path><circle cx="120" cy="45" fill="#006369" r="45"></circle><circle cx="390" cy="45" fill="#08475e" r="45"></circle><path d="m105 120h30v30h-30z" fill="#98f9ff"></path><path d="m105 180h30v30h-30z" fill="#98f9ff"></path><path d="m375 120h30v30h-30z" fill="#7dd5f4"></path><path d="m375 180h30v30h-30z" fill="#7dd5f4"></path><g><path d="m105 480v30h15l10-15-10-15-7.333-10z" fill="#bee75e"></path><path d="m120 510h15v-30l-7.5-10-7.5 10z" fill="#00da80"></path><path d="m76.486 271.361c-6.992 12.787-11.989 28.823-14.541 46.337l58.055 95.706 10-86.702-10-86.702c-17.001 0-32.454 11.138-43.514 31.361z" fill="#bee75e"></path><path d="m163.514 271.361c-11.06-20.223-26.513-31.361-43.514-31.361v173.404l58.067-95.618c-2.547-17.548-7.549-33.617-14.553-46.425z" fill="#00da80"></path><path d="m120 480h-26.143c-35.211 0-63.857-33.421-63.857-74.5v-90.5h12.857c42.537 0 77.143 40.374 77.143 90l10 39z" fill="#00da80"></path><path d="m146.143 480h-26.143v-75c0-49.626 34.606-90 77.143-90h12.857v90.5c0 41.079-28.646 74.5-63.857 74.5z" fill="#00b9a0"></path></g><path d="m210 45c0 24.812 20.188 45 45 45l10-43-10-47c-24.812 0-45 20.188-45 45z" fill="#006369"></path><path d="m240 150h15l10-15-10-15h-15z" fill="#98f9ff"></path><path d="m300 45c0-24.812-20.186-45-45-45v90c24.814 0 45-20.188 45-45z" fill="#08475e"></path><path d="m255 120h15v30h-15z" fill="#7dd5f4"></path><path d="m240 210h15l10-15-10-15h-15z" fill="#98f9ff"></path><path d="m255 180h15v30h-15z" fill="#7dd5f4"></path><g><path d="m375 480v30h15l10-15-10-15-7.333-10z" fill="#bee75e"></path><path d="m390 510h15v-30l-7.5-10-7.5 10z" fill="#00da80"></path><path d="m346.486 271.361c-6.992 12.787-11.989 28.823-14.541 46.337l58.055 95.706 10-86.702-10-86.702c-17.001 0-32.454 11.138-43.514 31.361z" fill="#bee75e"></path><path d="m433.514 271.361c-11.06-20.223-26.513-31.361-43.514-31.361v173.404l58.067-95.618c-2.547-17.548-7.549-33.617-14.553-46.425z" fill="#00da80"></path><path d="m390 480h-26.143c-35.21 0-63.857-33.421-63.857-74.5v-90.5h12.857c42.537 0 77.143 40.374 77.143 90l10 39z" fill="#00da80"></path><path d="m416.143 480h-26.143v-75c0-49.626 34.606-90 77.143-90h12.857v90.5c0 41.079-28.647 74.5-63.857 74.5z" fill="#00b9a0"></path></g></g></svg>