<!-- icon666.com - MILLIONS OF FREE VECTOR ICONS --><svg viewBox="0 0 511.99965 511" xmlns="http://www.w3.org/2000/svg"><path d="m376.617188 348.605469c18.835937 19.875 13.742187 61.050781 14.542968 99.0625v.011719l90.054688-.03125v-80.386719c0-20.085938 6.492187-30.28125 21.742187-64.003907 6.488281-14.332031 8.445313-26.9375 8.925781-38.855468.875-21.4375-3.207031-42.78125-11.269531-62.65625l-55.972656-110.535156c-.03125-.0625.011719.019531-.226563-.4375-6.15625-11.375-20.117187-16.605469-32.386718-11.644532-2.179688.882813-4.179688 2.03125-5.960938 3.394532-8.988281 6.886718-12.707031 19.230468-8.269531 30.199218l33.65625 87.253906c3.042969 7.875 5.929687 20.488282 7.949219 30.445313 1.84375 9.09375 2.9375 18.324219 3.269531 27.597656.011719.164063.011719.332031.011719.507813 0 7.367187-5.980469 13.386718-13.417969 13.386718-7.40625 0-13.40625-5.988281-13.40625-13.394531v-9.9375c0-16.667969-11.082031-31.542969-27.230469-35.679687-13.175781-3.363282-17.21875 3.71875-18.488281 13.875l-11.15625 68.042968c-4.117187 32.847657 17.445313 53.472657 17.632813 53.785157zm0 0" fill="#f2bb88"></path><path d="m358.984375 294.820312c-4.117187 32.847657 17.445313 53.472657 17.632813 53.785157 18.835937 19.875 13.742187 61.050781 14.542968 99.0625l58.804688-.019531c0-109.191407-4.695313-85.933594 21.738281-144.390626 14.25-31.46875 10.382813-70.140624-2.34375-101.511718l-55.96875-110.535156c-.03125-.0625.011719.019531-.230469-.4375-1.78125-3.300782-4.226562-6.082032-7.09375-8.25-8.988281 6.886718-12.707031 19.230468-8.269531 30.199218l33.65625 87.253906c3.042969 7.875 5.929687 20.488282 7.949219 30.445313 1.84375 9.09375 2.9375 18.324219 3.269531 27.597656.011719.164063.011719.332031.011719.507813 0 7.367187-5.980469 13.386718-13.417969 13.386718-7.40625 0-13.40625-5.988281-13.40625-13.394531v-9.9375c0-16.667969-11.082031-31.542969-27.230469-35.679687-13.175781-3.363282-17.21875 3.71875-18.488281 13.875zm0 0" fill="#f2d1a5"></path><path d="m509.359375 442.230469v60.890625c0 4.914062-3.988281 8.90625-8.894531 8.90625h-129.960938c-4.917968 0-8.90625-3.992188-8.90625-8.90625v-60.890625c0-4.914063 3.988282-8.90625 8.90625-8.90625h129.960938c4.90625 0 8.894531 3.992187 8.894531 8.90625zm0 0" fill="#8078bf"></path><path d="m135.382812 348.605469c-18.835937 19.875-13.742187 61.050781-14.542968 99.0625v.011719l-90.054688-.03125v-80.386719c0-37.15625-28.835937-57.25-30.667968-102.859375-.875-21.4375 3.207031-42.78125 11.269531-62.65625l55.972656-110.535156c.03125-.0625-.011719.019531.226563-.4375 6.15625-11.375 20.117187-16.605469 32.386718-11.644532 2.179688.882813 4.179688 2.03125 5.960938 3.394532 8.988281 6.886718 12.707031 19.230468 8.269531 30.199218l-33.65625 87.253906c-3.042969 7.875-5.929687 20.488282-7.949219 30.445313-1.84375 9.09375-2.9375 18.324219-3.269531 27.597656-.011719.164063-.011719.332031-.011719.507813 0 7.367187 5.980469 13.386718 13.417969 13.386718 7.40625 0 13.40625-5.988281 13.40625-13.394531v-9.9375c0-16.667969 11.082031-31.542969 27.230469-35.679687 13.175781-3.363282 17.21875 3.71875 18.488281 13.875l11.15625 68.042968c4.117187 32.847657-17.445313 53.472657-17.632813 53.785157zm0 0" fill="#f2bb88"></path><path d="m153.015625 294.820312c4.117187 32.847657-17.445313 53.472657-17.632813 53.785157-18.835937 19.875-13.742187 61.050781-14.542968 99.0625l-58.804688-.019531v-80.386719c0-37.15625-28.832031-57.25-30.667968-102.859375-.875-21.4375 3.207031-42.78125 11.269531-62.65625l55.972656-110.535156c.03125-.0625-.011719.019531.230469-.4375 1.78125-3.300782 4.226562-6.082032 7.09375-8.25 8.988281 6.886718 12.707031 19.230468 8.269531 30.199218l-33.65625 87.253906c-3.042969 7.875-5.929687 20.488282-7.949219 30.445313-1.84375 9.09375-2.9375 18.324219-3.269531 27.597656-.011719.164063-.011719.332031-.011719.507813 0 7.367187 5.980469 13.386718 13.417969 13.386718 7.40625 0 13.40625-5.988281 13.40625-13.394531v-9.9375c0-16.667969 11.082031-31.542969 27.230469-35.679687 13.175781-3.363282 17.21875 3.71875 18.488281 13.875zm0 0" fill="#f2d1a5"></path><path d="m150.402344 442.230469v60.890625c0 4.914062-3.988282 8.90625-8.90625 8.90625h-129.960938c-4.90625 0-8.898437-3.992188-8.898437-8.90625v-60.890625c0-4.914063 3.992187-8.90625 8.898437-8.90625h129.960938c4.917968 0 8.90625 3.992187 8.90625 8.90625zm0 0" fill="#8078bf"></path><path d="m509.359375 442.230469v44.792969h-102.398437c-4.914063 0-8.90625-3.988282-8.90625-8.90625v-44.792969h102.410156c4.90625 0 8.894531 3.992187 8.894531 8.90625zm0 0" fill="#958fca"></path><path d="m150.402344 442.230469v44.792969h-102.410156c-4.90625 0-8.894532-3.988282-8.894532-8.90625v-44.792969h102.398438c4.917968 0 8.90625 3.992187 8.90625 8.90625zm0 0" fill="#958fca"></path><path d="m310.75 258.394531h-32.90625v-50.117187c7.46875-1.574219 14.636719-3.925782 21.425781-6.988282 36.492188-16.449218 61.898438-53.140624 61.898438-95.777343 0-46.042969-29.636719-85.179688-70.886719-99.335938-10.699219-3.675781-22.175781-5.675781-34.125-5.675781-57.992188 0-105.015625 47.023438-105.015625 105.011719 0 50.566406 35.742187 92.765625 83.328125 102.765625v50.117187h-32.898438c-11.269531 0-20.488281 9.21875-20.488281 20.476563v2.40625c0 11.273437 9.21875 20.492187 20.488281 20.492187h32.898438v47.148438c0 12.6875 9.757812 23.0625 21.6875 23.0625 11.925781 0 21.6875-10.375 21.6875-23.0625v-47.148438h32.90625c11.261719 0 20.480469-9.21875 20.480469-20.492187v-2.40625c0-11.257813-9.21875-20.476563-20.480469-20.476563zm-113.867188-132.808593c-13.667968-40.324219 16.3125-82.65625 59.21875-82.65625 3.429688 0 6.773438.269531 10.011719.769531 40.636719 6.394531 65.136719 51.085937 46.128907 89.523437-8.835938 17.886719-23.949219 28.75-40.511719 32.855469-29.417969 7.332031-63.398438-6.667969-74.847657-40.492187zm0 0" fill="#ff5e93"></path><path d="m361.167969 105.511719c0 42.636719-25.40625 79.328125-61.898438 95.777343-10.96875-10.148437-20.289062-22.023437-27.539062-35.210937 16.5625-4.105469 31.675781-14.96875 40.511719-32.855469 19.007812-38.4375-5.492188-83.128906-46.128907-89.523437 6.023438-13.824219 14.21875-26.480469 24.167969-37.523438 41.25 14.15625 70.886719 53.292969 70.886719 99.335938zm0 0" fill="#ffa2c1"></path></svg>